<svg width="300" height="220" viewBox="0 0 300 220" fill="none" xmlns="http://www.w3.org/2000/svg">
<path d="M253.142 113.821C253.142 143.261 241.117 169.798 221.836 188.872C202.97 207.738 176.847 219.141 148.029 219.141C119.419 219.141 93.296 207.531 74.2223 188.872C54.9412 169.798 42.9165 143.261 42.9165 113.821C42.9165 55.563 89.9788 8.50073 148.029 8.50073C206.08 8.50073 253.142 55.7704 253.142 113.821Z" fill="#EAEEF9"/>
<path d="M255.091 43.8888C259.786 43.8888 263.591 40.0831 263.591 35.3885C263.591 30.694 259.786 26.8883 255.091 26.8883C250.397 26.8883 246.591 30.694 246.591 35.3885C246.591 40.0831 250.397 43.8888 255.091 43.8888Z" fill="#EAEEF9"/>
<path d="M271.146 15.7712C274.352 15.7712 276.951 13.1722 276.951 9.96617C276.951 6.76014 274.352 4.16113 271.146 4.16113C267.94 4.16113 265.341 6.76014 265.341 9.96617C265.341 13.1722 267.94 15.7712 271.146 15.7712Z" fill="#EAEEF9"/>
<path d="M35.9186 36.7939C39.1246 36.7939 41.7236 34.1949 41.7236 30.9889C41.7236 27.7828 39.1246 25.1838 35.9186 25.1838C32.7125 25.1838 30.1135 27.7828 30.1135 30.9889C30.1135 34.1949 32.7125 36.7939 35.9186 36.7939Z" fill="#EAEEF9"/>
<path d="M268.305 174.862C271.511 174.862 274.11 172.263 274.11 169.057C274.11 165.851 271.511 163.252 268.305 163.252C265.099 163.252 262.5 165.851 262.5 169.057C262.5 172.263 265.099 174.862 268.305 174.862Z" fill="#EAEEF9"/>
<path d="M10.7808 156.529C16.7349 156.529 21.5616 151.702 21.5616 145.748C21.5616 139.794 16.7349 134.967 10.7808 134.967C4.82672 134.967 0 139.794 0 145.748C0 151.702 4.82672 156.529 10.7808 156.529Z" fill="#EAEEF9"/>
<path d="M282.386 116.093C286.78 116.093 290.341 112.532 290.341 108.138C290.341 103.745 286.78 100.184 282.386 100.184C277.993 100.184 274.432 103.745 274.432 108.138C274.432 112.532 277.993 116.093 282.386 116.093Z" fill="#EAEEF9"/>
<g filter="url(#filter0_d_768_25579)">
<path d="M241.985 53.4538V168.321C241.985 173.102 238.158 176.889 233.467 176.889H60.4456C55.7543 176.889 51.8655 173.039 51.8655 168.321V53.4538C51.8655 48.735 55.6926 44.8854 60.4456 44.8854H233.467C238.158 44.8854 241.985 48.735 241.985 53.4538Z" fill="url(#paint0_linear_768_25579)"/>
</g>
<path d="M125.827 130.48C125.169 130.48 124.643 130.223 124.116 129.838C123.195 128.94 123.195 127.4 124.116 126.502C130.17 120.728 138.198 117.52 146.752 117.52C155.306 117.52 163.334 120.728 169.388 126.502C170.309 127.4 170.309 128.94 169.388 129.838C168.467 130.736 166.887 130.736 165.966 129.838C160.834 124.834 153.99 122.139 146.752 122.139C139.514 122.139 132.67 124.834 127.538 129.838C127.011 130.223 126.485 130.48 125.827 130.48Z" fill="#989FB0"/>
<path d="M134.281 95.3909L137.488 92.1771C138.423 91.2397 138.423 89.6327 137.488 88.6953C136.552 87.758 134.949 87.758 134.014 88.6953L130.807 91.9092L127.601 88.6953C126.665 87.758 125.062 87.758 124.127 88.6953C123.191 89.6327 123.191 91.2397 124.127 92.1771L127.333 95.3909L124.127 98.6048C123.191 99.5422 123.191 101.149 124.127 102.087C124.661 102.622 125.196 102.756 125.864 102.756C126.532 102.756 127.066 102.488 127.601 102.087L130.807 98.8726L134.014 102.087C134.548 102.622 135.083 102.756 135.751 102.756C136.419 102.756 136.953 102.488 137.488 102.087C138.423 101.149 138.423 99.5422 137.488 98.6048L134.281 95.3909Z" fill="#989FB0"/>
<path d="M166.327 95.3909L169.405 92.1771C170.303 91.2397 170.303 89.6327 169.405 88.6953C168.508 87.758 166.968 87.758 166.07 88.6953L162.992 91.9092L159.914 88.6953C159.016 87.758 157.477 87.758 156.579 88.6953C155.681 89.6327 155.681 91.2397 156.579 92.1771L159.657 95.3909L156.579 98.6048C155.681 99.5422 155.681 101.149 156.579 102.087C157.092 102.622 157.605 102.756 158.246 102.756C158.888 102.756 159.401 102.488 159.914 102.087L162.992 98.8726L166.07 102.087C166.584 102.622 167.097 102.756 167.738 102.756C168.379 102.756 168.892 102.488 169.405 102.087C170.303 101.149 170.303 99.5422 169.405 98.6048L166.327 95.3909Z" fill="#989FB0"/>
<path d="M241.985 53.4538V66.3065H51.8655V53.4538C51.8655 48.735 55.6926 44.8854 60.4456 44.8854H233.467C238.158 44.8854 241.985 48.735 241.985 53.4538Z" fill="#D5DDEA"/>
<path d="M63.8395 58.7933C65.6122 58.7933 67.0493 57.3478 67.0493 55.5646C67.0493 53.7815 65.6122 52.3359 63.8395 52.3359C62.0667 52.3359 60.6296 53.7815 60.6296 55.5646C60.6296 57.3478 62.0667 58.7933 63.8395 58.7933Z" fill="#989FB0"/>
<path d="M74.3329 58.7933C76.1056 58.7933 77.5427 57.3478 77.5427 55.5646C77.5427 53.7815 76.1056 52.3359 74.3329 52.3359C72.5601 52.3359 71.123 53.7815 71.123 55.5646C71.123 57.3478 72.5601 58.7933 74.3329 58.7933Z" fill="#989FB0"/>
<path d="M84.7638 58.7933C86.5365 58.7933 87.9736 57.3478 87.9736 55.5646C87.9736 53.7815 86.5365 52.3359 84.7638 52.3359C82.991 52.3359 81.554 53.7815 81.554 55.5646C81.554 57.3478 82.991 58.7933 84.7638 58.7933Z" fill="#989FB0"/>
<path d="M91.554 144.54H202.293" stroke="#D5DDEA" stroke-width="1.1811" stroke-miterlimit="10" stroke-linecap="round" stroke-linejoin="round"/>
<path d="M109.025 156.399H184.826" stroke="#D5DDEA" stroke-width="1.1811" stroke-miterlimit="10" stroke-linecap="round" stroke-linejoin="round"/>
<path d="M233.774 201.303L193.645 161.206L202.845 152.007L242.942 192.136L233.774 201.303Z" fill="#858B9B"/>
<path d="M247.724 215.412L216.953 184.642C214.383 182.072 214.383 177.885 216.953 175.315C219.523 172.746 223.71 172.746 226.279 175.315L257.05 206.086C259.62 208.655 259.62 212.843 257.05 215.412C254.481 217.982 250.293 217.982 247.724 215.412Z" fill="#858B9B"/>
<path d="M245.536 217.379L205.946 177.79C205.026 176.87 205.026 175.379 205.946 174.427L216.066 164.308C216.986 163.388 218.477 163.388 219.428 164.308L259.018 203.897C259.938 204.817 259.938 206.308 259.018 207.26L248.898 217.379C247.947 218.299 246.456 218.299 245.536 217.379Z" fill="url(#paint1_linear_768_25579)"/>
<path d="M148.22 32.0015C106.219 32.0015 72.1809 66.0396 72.1809 108.04C72.1809 150.009 106.219 184.079 148.188 184.079C190.188 184.079 224.226 150.041 224.226 108.04C224.226 66.0396 190.188 32.0015 148.22 32.0015ZM148.22 169.994C114.499 169.994 87.1856 142.237 87.1856 108.008C87.1856 73.7799 114.499 46.0545 148.22 46.0545C181.94 46.0545 209.253 73.8116 209.253 108.04C209.253 142.269 181.909 169.994 148.22 169.994Z" fill="url(#paint2_linear_768_25579)"/>
<defs>
<filter id="filter0_d_768_25579" x="38.8734" y="38.3893" width="216.104" height="157.988" filterUnits="userSpaceOnUse" color-interpolation-filters="sRGB">
<feFlood flood-opacity="0" result="BackgroundImageFix"/>
<feColorMatrix in="SourceAlpha" type="matrix" values="0 0 0 0 0 0 0 0 0 0 0 0 0 0 0 0 0 0 127 0" result="hardAlpha"/>
<feOffset dy="6.49606"/>
<feGaussianBlur stdDeviation="6.49606"/>
<feColorMatrix type="matrix" values="0 0 0 0 0.397708 0 0 0 0 0.47749 0 0 0 0 0.575 0 0 0 0.27 0"/>
<feBlend mode="normal" in2="BackgroundImageFix" result="effect1_dropShadow_768_25579"/>
<feBlend mode="normal" in="SourceGraphic" in2="effect1_dropShadow_768_25579" result="shape"/>
</filter>
<linearGradient id="paint0_linear_768_25579" x1="146.863" y1="41.832" x2="146.863" y2="178.312" gradientUnits="userSpaceOnUse">
<stop stop-color="#FDFEFF"/>
<stop offset="0.9964" stop-color="#ECF0F5"/>
</linearGradient>
<linearGradient id="paint1_linear_768_25579" x1="205.231" y1="190.85" x2="259.718" y2="190.85" gradientUnits="userSpaceOnUse">
<stop stop-color="#B0BACC"/>
<stop offset="1" stop-color="#969EAE"/>
</linearGradient>
<linearGradient id="paint2_linear_768_25579" x1="72.1113" y1="108.057" x2="224.254" y2="108.057" gradientUnits="userSpaceOnUse">
<stop stop-color="#B0BACC"/>
<stop offset="1" stop-color="#969EAE"/>
</linearGradient>
</defs>
</svg>
