<svg width="14" height="12" viewBox="0 0 14 12" fill="none" xmlns="http://www.w3.org/2000/svg">
<path fill-rule="evenodd" clip-rule="evenodd" d="M5.2624 1.0493C6.02965 -0.29703 7.97042 -0.297031 8.73768 1.04929L13.2743 9.00993C14.0342 10.3432 13.0713 12.0002 11.5367 12.0002H2.4634C0.928786 12.0002 -0.0340715 10.3432 0.725756 9.00994L5.2624 1.0493ZM7.00001 7.33352C7.3682 7.33352 7.66668 7.03504 7.66668 6.66685V3.33353C7.66668 2.96534 7.3682 2.66686 7.00001 2.66686C6.63182 2.66686 6.33334 2.96534 6.33334 3.33353V6.66685C6.33334 7.03504 6.63182 7.33352 7.00001 7.33352ZM7.00001 10.0002C7.3682 10.0002 7.66668 9.70171 7.66668 9.33352C7.66668 8.96533 7.3682 8.66686 7.00001 8.66686C6.63182 8.66686 6.33334 8.96533 6.33334 9.33352C6.33334 9.70171 6.63182 10.0002 7.00001 10.0002Z" fill="#E6544F"/>
</svg>
