<svg width="32" height="32" viewBox="0 0 32 32" fill="none" xmlns="http://www.w3.org/2000/svg">
<path d="M16 2.66663C8.65335 2.66663 2.66669 8.65329 2.66669 16C2.66669 23.3466 8.65335 29.3333 16 29.3333C23.3467 29.3333 29.3334 23.3466 29.3334 16C29.3334 8.65329 23.3467 2.66663 16 2.66663ZM20.48 19.0666C20.8667 19.4533 20.8667 20.0933 20.48 20.48C20.28 20.68 20.0267 20.7733 19.7734 20.7733C19.52 20.7733 19.2667 20.68 19.0667 20.48L16 17.4133L12.9334 20.48C12.7334 20.68 12.48 20.7733 12.2267 20.7733C11.9734 20.7733 11.72 20.68 11.52 20.48C11.1334 20.0933 11.1334 19.4533 11.52 19.0666L14.5867 16L11.52 12.9333C11.1334 12.5466 11.1334 11.9066 11.52 11.52C11.9067 11.1333 12.5467 11.1333 12.9334 11.52L16 14.5866L19.0667 11.52C19.4534 11.1333 20.0934 11.1333 20.48 11.52C20.8667 11.9066 20.8667 12.5466 20.48 12.9333L17.4134 16L20.48 19.0666Z" fill="white"/>
</svg>
