<?xml version="1.0" encoding="utf-8"?>
<!-- Generator: Adobe Illustrator 24.2.0, SVG Export Plug-In . SVG Version: 6.00 Build 0)  -->
<svg version="1.1" id="Layer_1" xmlns="http://www.w3.org/2000/svg" xmlns:xlink="http://www.w3.org/1999/xlink" x="0px" y="0px"
	 viewBox="0 0 720 612" enable-background="new 0 0 720 612" xml:space="preserve">
<path fill="#E00500" d="M-2394.16,17.76c4.4-2.57,10.03-2.05,14.52-0.01c3.54,1.59,5.74,4.91,8.22,7.72
	c40.62,47.39,81.26,94.76,121.88,142.15c0.98,0.86,1.12,2.14,1.08,3.38c-0.03,74.04-0.01,148.08-0.01,222.12
	c-38.16-43.72-76.09-87.63-114.4-131.22c-7.76-8.94-16.05-17.58-21.96-27.93c-7.87-13.57-13.46-29.08-12.79-44.96
	c0.02-54.69,0-109.39,0.01-164.08C-2397.76,22.14-2396.66,19.21-2394.16,17.76z"/>
<path fill="#E00500" d="M-2108.68,28.24c4.74-6.08,11.17-12.6,19.59-11.83c5.33,0.26,8.93,5.52,8.53,10.6
	c0.05,53.01,0,106.01,0.03,159.02c0.42,20.28-7.44,40.03-19.18,56.3c-43.29,50.34-86.71,100.58-130.09,150.85
	c0-73.05,0.04-146.09-0.01-219.14c0.15-2.22-0.62-4.89,1.27-6.57C-2188.56,121.08-2148.63,74.66-2108.68,28.24z"/>
<path fill="#E00500" d="M-2574.48,226.56c2.79-1.82,6.25-1.63,9.44-1.65c28.36,0.13,56.73-0.15,85.08,0.14
	c40.45,3.77,80.34,21.78,107.26,52.67c37.92,44.13,75.47,88.59,112.94,133.1c3.66,4.59,7.83,8.8,11.18,13.62
	c0.26,54.54,0.01,109.11,0.12,163.67c-14.59-0.83-28.05-7.7-40.03-15.62c-15.57-10.44-28.61-24.09-40.71-38.29
	c-81.57-93.85-162.42-188.32-243.56-282.54c-3.08-3.36-6.05-7.14-6.85-11.75C-2580.68,234.99-2578.96,229.21-2574.48,226.56z"/>
<path fill="#E00500" d="M-2025.22,229.71c11.49-2.91,23.3-5.1,35.2-4.78c26.36,0.01,52.71,0.01,79.06-0.01
	c4.21-0.28,8.67,1.54,10.81,5.32c3.55,5.98,1.35,13.71-3,18.67c-77.83,90.49-155.55,181.08-233.71,271.3
	c-11.58,13.04-22.48,26.78-35.46,38.5c-11.14,10.07-23.56,18.98-37.52,24.68c-6.36,2.58-13.08,4.39-19.95,4.76
	c0-54.63,0.01-109.26,0-163.89c39.44-46.89,78.93-93.74,118.83-140.25c8.12-9.86,17.1-19.08,27.39-26.7
	C-2066.27,244.24-2046.15,235.15-2025.22,229.71z"/>
<g>
	<path fill="#E00500" d="M204.99,21.675c4.4-2.57,10.03-2.05,14.52-0.01c3.54,1.59,5.74,4.91,8.22,7.72
		c40.62,47.39,81.26,94.76,121.88,142.15c0.98,0.86,1.12,2.14,1.08,3.38c-0.03,74.04-0.01,148.08-0.01,222.12
		c-38.16-43.72-76.09-87.63-114.4-131.22c-7.76-8.94-16.05-17.58-21.96-27.93c-7.87-13.57-13.46-29.08-12.79-44.96
		c0.02-54.69,0-109.39,0.01-164.08C201.39,26.055,202.49,23.125,204.99,21.675z"/>
	<path fill="#E00500" d="M490.47,32.155c4.74-6.08,11.17-12.6,19.59-11.83c5.33,0.26,8.93,5.52,8.53,10.6
		c0.05,53.01,0,106.01,0.03,159.02c0.42,20.28-7.44,40.03-19.18,56.3c-43.29,50.34-86.71,100.58-130.09,150.85
		c0-73.05,0.04-146.09-0.01-219.14c0.15-2.22-0.62-4.89,1.27-6.57C410.59,124.995,450.52,78.575,490.47,32.155z"/>
	<path fill="#E00500" d="M24.67,230.475c2.79-1.82,6.25-1.63,9.44-1.65c28.36,0.13,56.73-0.15,85.08,0.14
		c40.45,3.77,80.34,21.78,107.26,52.67c37.92,44.13,75.47,88.59,112.94,133.1c3.66,4.59,7.83,8.8,11.18,13.62
		c0.26,54.54,0.01,109.11,0.12,163.67c-14.59-0.83-28.05-7.7-40.03-15.62c-15.57-10.44-28.61-24.09-40.71-38.29
		c-81.57-93.85-162.42-188.32-243.56-282.54c-3.08-3.36-6.05-7.14-6.85-11.75C18.47,238.905,20.19,233.124,24.67,230.475z"/>
	<path fill="#E00500" d="M573.93,233.624c11.49-2.91,23.3-5.1,35.2-4.78c26.36,0.01,52.71,0.01,79.06-0.01
		c4.21-0.28,8.67,1.54,10.81,5.32c3.55,5.98,1.35,13.71-3,18.67c-77.83,90.49-155.55,181.08-233.71,271.3
		c-11.58,13.04-22.48,26.78-35.46,38.5c-11.14,10.07-23.56,18.98-37.52,24.68c-6.36,2.58-13.08,4.39-19.95,4.76
		c0-54.63,0.01-109.26,0-163.89c39.44-46.89,78.93-93.74,118.83-140.25c8.12-9.86,17.1-19.08,27.39-26.7
		C532.88,248.155,553,239.064,573.93,233.624z"/>
</g>
<path fill="#E00500" d="M-168.51,341.58c12.91-9.08,28.78-13.96,44.57-13.59c12.97,0.02,25.95,0.02,38.93-0.01
	c2.44,0.04,5.22,0.01,7.19,1.77c1.93,1.64,2.15,4.53,1.27,6.79c-1.26,3.11-3.74,5.47-5.85,8
	c-46.93,54.12-93.85,108.25-140.77,162.39c-5.9,6.57-15.98,10.23-24.42,6.82c0.16-28.29,0.12-56.59,0.01-84.89
	c18.16-20.96,36.61-41.66,54.87-62.53C-184.89,357.86-178.06,348.26-168.51,341.58z"/>
<g>
	<path fill="#00B74F" d="M-1812.93,224.95c26.06-0.07,52.12,0.05,78.18-0.06c29.81,92.02,59.35,184.12,89.08,276.16
		c29.73-91.97,59-184.09,88.57-276.12c26.08,0.01,52.16,0,78.25,0.01c-40.64,121.05-81.3,242.09-121.97,363.13
		c-29.69-0.01-59.38,0.01-89.07-0.01C-1730.9,467.02-1771.92,345.99-1812.93,224.95z"/>
	<g>
		<path fill="#00B74F" d="M-1446.98,224.93c43.34,0,86.69,0,130.04,0c8.41-0.26,16.88,0.24,25.08,2.32
			c30.34,7.12,59.3,23.29,78.6,48.14c13.95,17.85,21.69,40.09,23.27,62.59c1.39,20.93-0.51,42.59-9.09,61.94
			c-6.97,15.84-18.75,29.1-32.19,39.8c-20.16,15.82-45.05,26.06-70.74,27.5c-25.11,0.11-50.23,0.02-75.34,0.04
			c-0.02,40.26-0.02,80.52-0.01,120.78c-23.21,0.05-46.42,0.01-69.63,0.03C-1446.99,467.02-1446.99,345.98-1446.98,224.93z
			 M-1377.39,292.44c0.06,36.32,0.01,72.64,0.03,108.96c22.75,0,45.51,0,68.27,0c16.63-0.38,33.86-8.46,42.25-23.32
			c5.57-9.64,7.34-21.01,7.11-32.02c-0.22-10.8-2.55-21.82-8.37-31.05c-9.35-14.98-27.47-23.46-44.92-22.62
			C-1334.48,292.44-1355.93,292.34-1377.39,292.44z"/>
	</g>
	<g>
		<path fill="#00B74F" d="M-1156.05,224.94c44.01-0.01,88.02,0,132.03-0.01c8.99,0.1,18.05-0.45,26.97,1.04
			c21.32,3.16,42.2,11.4,58.79,25.36c12.59,10.48,22.35,24.18,28.64,39.28c7.34,17.34,10.43,36.83,6.57,55.41
			c-4.24,21.16-16.76,40.09-33.21,53.82c13.04,5.25,24.57,14.34,32.24,26.18c7.46,11.31,11.54,24.56,13.49,37.89
			c2.82,18.12,1.89,36.98-4.31,54.34c-5.75,16.5-16.13,31.13-28.83,43.02c-15.49,13.89-35.66,21.47-55.92,24.97
			c-8.08,1.41-16.29,2.02-24.49,1.83c-50.66-0.01-101.31,0-151.97-0.01C-1156.05,467.02-1156.05,345.98-1156.05,224.94z
			 M-1083.24,292.48c0.12,26.95,0.01,53.9,0.06,80.85c19.06,0.01,38.13,0,57.2,0c8.18-0.09,16.59,0.68,24.51-1.96
			c8.54-2.54,16.49-7.92,20.98-15.75c4.84-8.29,5.84-18.27,4.93-27.68c-0.88-9.24-4.68-18.42-11.64-24.73
			c-8.03-7.27-18.99-11.29-29.82-10.83C-1039.09,292.47-1061.17,292.28-1083.24,292.48z M-1083.19,433.8
			c0.03,29.32-0.06,58.64,0.05,87.96c27.38-0.07,54.77,0,82.15-0.03c13.91-0.2,28.2-7.32,34.85-19.89c5.06-9.36,6.01-20.36,5.2-30.8
			c-0.74-9.17-3.33-18.58-9.37-25.72c-6.04-7.16-15.27-11.49-24.63-11.52C-1024.36,433.8-1053.77,433.8-1083.19,433.8z"/>
	</g>
	<path fill="#00B74F" d="M-312.33,224.94c21.56-0.01,43.12-0.01,64.69,0c0.05,67.97-0.08,135.95,0.06,203.92
		c0.11,28.3,0.15,56.6-0.01,84.89c-0.1,24.77-0.02,49.54-0.05,74.31c-21.57,0.01-43.13,0.01-64.69,0
		C-312.34,467.02-312.34,345.98-312.33,224.94z"/>
	<g>
		<path fill="#00B74F" d="M-88.24,248.8c5.23-15.42,22.16-25.63,38.25-22.88c15.8,2.01,28.56,15.96,29.99,31.7v4.1
			c-0.34,8.89-4.04,17.61-10.41,23.86c-11.18,11.53-30.53,13.56-43.84,4.55C-87.74,281.75-93.86,263.66-88.24,248.8z M-61.86,234.25
			c-13.38,3-22.79,17.32-20.1,30.8c2.08,14.18,16.9,24.74,30.99,22.02c14.67-2.01,25.45-17.66,22.02-32.09
			C-31.56,240.41-47.57,230.28-61.86,234.25z"/>
	</g>
	<g>
		<path fill="#00B74F" d="M-69.11,243c5.73,0.07,11.47-0.15,17.21,0.08c4.27,0.24,8.61,2.81,10.05,6.99
			c1.31,3.88,1.26,8.51-0.97,12.04c-1.38,2.21-4.03,2.85-6.19,3.92c2.8,4.55,6.17,8.73,9.08,13.22c-3.12,0.02-6.22,0.02-9.3,0.03
			c-3.11-4.33-5.62-9.1-8.99-13.2c-0.56-0.2-1.69-0.61-2.26-0.81c-0.3,4.66-0.15,9.33-0.17,14c-2.84-0.01-5.65,0-8.45,0
			C-69.12,267.18-69.11,255.09-69.11,243z M-60.64,250.86c-0.03,2.42-0.03,4.85,0,7.28c2.81-0.09,5.74,0.32,8.54-0.39
			c2.77-0.95,2.57-5.5-0.13-6.43C-54.97,250.52-57.87,250.95-60.64,250.86z"/>
	</g>
	<path fill="#00B74F" d="M-475.89,329.18c12.8-5.87,26.89-8.53,40.91-8.95c16.01-0.82,32.17,2.91,46.25,10.55
		c13.96,7.63,26.59,18.21,35.11,31.77c10.97,17.4,16.5,38,16.89,58.49c0.01,55.68,0.01,111.35,0,167.02
		c-21.43,0.01-42.86,0.01-64.28,0c0-46.35-0.03-92.7,0.01-139.05c0.72-16.54-1.5-34.07-10.79-48.18
		c-6.5-10.03-17.4-16.83-29.14-18.77c-17.19-2.89-36.4,0.35-49.58,12.43c-13.66,12.53-19.92,31.38-20.96,49.5
		c-0.05,48.01-0.03,96.01,0,144.02c-21.19,0.13-42.38,0.02-63.57,0.05c0-86.31-0.01-172.61,0-258.92c21.18-0.01,42.36,0,63.54-0.01
		c0.03,10.06-0.04,20.12,0.03,30.18C-502.44,346.44-490.35,335.58-475.89,329.18z"/>
	<g>
		<path fill="#00B74F" d="M-777.04,324.04c19.71-4.8,40.71-4.1,60.06,1.99c19.36,5.98,36.92,17.22,51.04,31.69
			c0-9.53-0.01-19.06,0-28.59c22.17,0.01,44.34-0.01,66.52,0.01c-0.01,86.29-0.03,172.59,0.01,258.88
			c-22.18,0.11-44.36,0.02-66.53,0.04c-0.09-9.72,0.18-19.44-0.16-29.15c-24.19,25.25-59.78,39.77-94.82,36.24
			c-34.04-2.94-65.44-22.37-85.5-49.68c-23.95-31.99-32.92-74.12-26.02-113.3c5.26-30.74,20.57-59.93,43.93-80.76
			C-813.92,338.3-796.15,328.63-777.04,324.04z M-748.39,382.81c-18.12,2.48-35.17,11.79-47.08,25.65
			c-12.06,13.82-18.76,32.17-18.35,50.51c0.2,17.6,6.94,35,18.55,48.22c11.35,13.07,27.28,22.05,44.34,25
			c17.42,3.08,35.89-0.03,51.24-8.87c15.76-8.93,28.13-23.68,34.08-40.8c5.79-16.46,5.58-34.95-0.6-51.27
			c-6.26-16.76-18.72-31.06-34.39-39.67C-715.01,383.55-732.07,380.5-748.39,382.81z"/>
	</g>
	<path fill="#00B74F" d="M-182.74,467.38c1.75-2.08,4.5-3.72,7.31-2.9c3.84,1.02,5.96,4.68,8.31,7.57
		c30.64,38.68,61.35,77.3,91.98,115.98c-24.61,0.07-49.22,0.05-73.82,0.01c-15.23-18.73-30.58-37.36-45.81-56.09
		c-7.71-9.52-13.9-21.79-11.45-34.35c0.7-4.46,3.15-8.36,6.39-11.43C-194.1,479.94-188.45,473.63-182.74,467.38z"/>
</g>
</svg>
