<svg width="65" height="64" viewBox="0 0 65 64" fill="none" xmlns="http://www.w3.org/2000/svg">
<path fill-rule="evenodd" clip-rule="evenodd" d="M25.5496 12.1962C28.6186 6.8109 36.3817 6.8109 39.4507 12.1962L57.5974 44.0388C60.6367 49.372 56.7853 55.9998 50.6468 55.9998H14.3536C8.21514 55.9998 4.36371 49.372 7.40302 44.0388L25.5496 12.1962ZM32.5 37.3331C33.9728 37.3331 35.1667 36.1392 35.1667 34.6664V21.3331C35.1667 19.8604 33.9728 18.6665 32.5 18.6665C31.0273 18.6665 29.8334 19.8604 29.8334 21.3331V34.6664C29.8334 36.1392 31.0273 37.3331 32.5 37.3331ZM32.5 47.9998C33.9728 47.9998 35.1667 46.8059 35.1667 45.3331C35.1667 43.8604 33.9728 42.6665 32.5 42.6665C31.0273 42.6665 29.8334 43.8604 29.8334 45.3331C29.8334 46.8059 31.0273 47.9998 32.5 47.9998Z" fill="#FFB80B"/>
</svg>
